 <svg version="1.0" xmlns="http://www.w3.org/2000/svg"  width="152.000000pt" height="149.000000pt" viewBox="0 0 152.000000 149.000000"  preserveAspectRatio="xMidYMid meet">  <g transform="translate(0.000000,149.000000) scale(0.100000,-0.100000)" fill="#ff5d22" stroke="none"> <path d="M1284 1396 c-43 -19 -64 -53 -64 -102 0 -51 27 -88 75 -104 49 -16 103 11 129 63 16 34 17 42 5 74 -24 63 -89 94 -145 69z m88 -40 c-2 -11 1 -15 7 -11 6 3 11 -1 11 -10 0 -9 4 -14 9 -11 4 3 8 -13 8 -35 0 -29 -5 -42 -20 -50 -13 -7 -17 -8 -13 -1 3 6 1 14 -5 18 -7 4 -10 3 -6 -2 3 -5 0 -17 -7 -26 -13 -18 -78 -20 -93 -3 -5 4 1 5 12 1 15 -5 14 -1 -7 17 -42 37 -33 111 12 100 9 -3 7 1 -4 8 -28 17 -1 30 54 26 37 -2 44 -6 42 -21z"/> <path d="M574 1350 c-141 -37 -269 -118 -354 -225 -131 -164 -180 -383 -131 -577 30 -117 118 -277 144 -261 6 4 7 1 2 -6 -10 -17 81 -102 156 -146 32 -18 91 -46 131 -61 66 -25 86 -28 208 -28 115 -1 145 2 205 22 203 67 367 229 434 426 32 96 40 262 17 361 -71 303 -342 516 -652 514 -53 0 -118 -8 -160 -19z m238 -11 c61 -6 118 -18 140 -29 20 -10 38 -16 41 -14 3 3 16 0 29 -7 12 -7 27 -12 31 -11 5 1 6 -2 2 -8 -3 -5 6 -15 20 -20 14 -5 40 -25 57 -42 18 -18 26 -24 18 -13 -7 11 1 5 19 -13 18 -17 30 -35 28 -40 -3 -4 10 -18 27 -32 18 -13 39 -37 45 -52 7 -16 17 -26 22 -23 5 4 6 -2 2 -11 -4 -12 -3 -15 6 -10 6 4 10 4 9 -1 -4 -17 14 -53 24 -47 6 4 8 2 5 -3 -4 -6 0 -30 9 -54 11 -30 18 -91 21 -184 5 -133 4 -145 -21 -213 -33 -92 -78 -178 -117 -222 -17 -19 -27 -29 -23 -21 5 10 3 12 -5 7 -7 -5 -10 -14 -8 -20 5 -12 -9 -24 -68 -57 -16 -10 -29 -22 -28 -27 3 -12 -52 -33 -61 -25 -3 4 -6 1 -6 -6 0 -15 -89 -54 -112 -48 -10 3 -16 1 -13 -3 8 -13 -129 -32 -192 -27 -114 9 -139 14 -168 33 -16 10 -26 13 -22 7 6 -9 3 -11 -10 -6 -10 4 -20 9 -23 12 -3 3 -39 24 -81 46 -54 28 -75 44 -71 54 3 9 1 12 -6 7 -6 -3 -29 15 -53 44 -23 27 -45 47 -49 45 -4 -3 -11 2 -14 11 -3 8 -2 13 2 10 4 -2 8 4 8 14 0 15 -3 16 -13 8 -11 -9 -16 -4 -26 21 -6 17 -15 31 -20 31 -4 0 -5 5 -2 10 3 6 1 10 -5 10 -7 0 -10 7 -7 15 4 8 2 17 -3 20 -6 4 -10 16 -10 28 0 18 -2 20 -11 7 -9 -13 -10 -12 -5 2 3 9 -2 31 -10 47 -9 18 -13 40 -9 52 4 12 3 19 -1 16 -5 -3 -8 27 -8 66 3 122 8 177 17 177 5 0 6 7 3 16 -3 9 0 28 8 42 19 37 39 85 41 97 0 6 7 9 15 7 10 -2 11 0 2 11 -9 11 -8 14 3 14 8 0 15 -4 15 -9 0 -5 4 -6 10 -3 6 4 5 11 -3 19 -6 8 -16 11 -21 8 -5 -3 -6 0 -2 7 4 6 11 9 16 6 4 -3 14 3 21 12 12 14 12 16 -1 9 -8 -4 -5 1 6 11 12 10 27 28 33 41 7 12 16 20 22 17 5 -4 8 -1 7 7 -2 7 2 12 9 11 6 -2 15 6 18 17 4 11 10 20 15 20 5 0 16 7 24 16 9 9 22 17 29 18 6 1 17 4 22 8 31 19 124 68 130 68 3 0 3 -6 0 -12 -4 -7 -1 -6 7 2 7 9 31 17 53 19 22 1 47 7 55 12 20 11 40 11 162 -2z m423 -219 l20 -25 -22 19 c-13 11 -23 24 -23 29 0 6 1 8 3 6 1 -2 11 -15 22 -29z"/> <path d="M670 1279 c0 -4 -15 -7 -32 -7 -18 0 -46 -5 -61 -11 -16 -6 -32 -9 -37 -6 -5 3 -16 -2 -25 -11 -9 -9 -19 -14 -22 -10 -3 3 -12 -2 -18 -11 -11 -15 -15 -15 -29 -4 -14 12 -16 12 -11 -2 4 -10 -1 -17 -14 -22 -10 -3 -34 -20 -52 -38 -18 -18 -27 -23 -19 -12 8 11 -11 -6 -43 -37 -31 -31 -57 -62 -57 -68 0 -6 -5 -8 -10 -5 -9 6 -14 -8 -11 -28 1 -4 -5 -15 -14 -23 -8 -9 -15 -22 -15 -29 0 -8 -9 -29 -19 -47 -11 -18 -24 -65 -31 -105 -12 -75 -11 -214 3 -224 4 -3 9 -19 10 -36 1 -17 5 -29 9 -27 4 3 10 -8 14 -23 4 -15 15 -39 24 -53 10 -14 21 -35 24 -48 4 -12 12 -19 18 -16 7 5 9 0 6 -14 -4 -12 -3 -20 1 -18 4 3 12 1 19 -3 9 -5 8 -12 -4 -27 -15 -19 -16 -19 -9 1 5 15 3 17 -6 8 -20 -20 0 -34 26 -17 18 11 25 12 31 3 4 -7 3 -9 -3 -6 -5 3 -10 0 -10 -8 0 -8 4 -12 9 -9 5 3 18 -6 29 -20 13 -16 25 -23 36 -19 10 4 14 2 9 -5 -5 -9 56 -45 87 -50 4 -1 14 -8 23 -16 8 -8 22 -12 32 -9 10 4 13 2 9 -3 -22 -24 311 -46 340 -23 6 6 21 8 32 4 14 -4 26 1 38 14 10 12 26 21 36 21 10 0 30 9 44 20 14 11 30 17 36 13 5 -3 7 -1 4 4 -4 6 0 14 9 17 10 4 13 2 8 -7 -5 -8 -2 -8 9 2 9 7 14 18 10 25 -3 6 -3 8 1 4 4 -3 23 9 41 27 18 19 36 31 40 27 5 -4 5 -1 1 5 -4 7 -2 21 4 32 7 13 7 22 0 26 -6 4 -7 11 -4 17 4 7 2 8 -4 4 -7 -4 -22 2 -34 14 -12 11 -29 18 -37 15 -9 -3 -12 -3 -8 1 8 8 -76 54 -98 54 -8 0 -19 -8 -24 -17 -8 -13 -10 -14 -11 -4 0 9 -11 2 -26 -16 -15 -18 -32 -29 -40 -26 -8 3 -14 1 -14 -5 0 -5 -24 -16 -52 -25 -58 -18 -180 -16 -203 3 -7 6 -17 10 -21 9 -22 -4 -35 2 -28 13 5 8 2 9 -9 5 -11 -4 -17 -1 -17 8 0 8 -6 12 -14 9 -16 -6 -71 50 -71 74 0 10 -7 16 -18 14 -12 -2 -15 2 -10 14 4 11 3 15 -5 10 -6 -3 -13 -2 -16 3 -3 5 2 12 11 16 10 3 19 1 21 -4 2 -6 9 -8 15 -4 7 5 191 8 411 9 l398 0 30 28 c30 27 30 29 23 94 -4 37 -9 88 -10 114 -1 26 -9 58 -18 72 -10 14 -18 33 -20 43 -2 10 -8 27 -14 38 -6 11 -8 27 -5 35 5 13 3 13 -13 0 -13 -10 -16 -11 -11 -2 5 8 1 21 -10 33 -19 21 -37 50 -53 87 -12 26 -23 30 -14 5 6 -16 5 -16 -10 -4 -9 7 -17 21 -17 30 0 13 -2 13 -9 2 -6 -9 -11 -10 -15 -2 -4 6 -4 11 1 11 8 0 -45 33 -117 72 -19 11 -27 17 -17 14 11 -4 16 -2 12 5 -4 6 -13 8 -21 5 -8 -3 -27 -1 -42 5 -15 6 -47 14 -72 19 -25 5 -54 12 -65 15 -16 6 -17 5 -5 -4 8 -6 10 -11 4 -11 -6 0 -14 3 -17 7 -9 9 -107 10 -107 2z m185 -34 c262 -55 445 -273 448 -535 1 -52 -2 -101 -6 -107 -6 -10 -109 -13 -458 -13 -247 0 -449 -3 -449 -7 0 -24 65 -116 103 -147 77 -63 129 -81 237 -81 109 0 165 17 236 71 l45 35 84 -48 c47 -26 85 -51 85 -54 0 -16 -112 -107 -168 -137 -76 -41 -196 -72 -277 -72 -34 0 -97 9 -139 20 -369 94 -541 493 -351 815 72 123 220 228 365 259 85 19 159 19 245 1z"/> <path d="M623 1046 c-48 -15 -131 -66 -158 -95 -23 -26 -10 -48 15 -26 11 10 24 14 32 9 10 -6 11 -5 1 7 -10 13 -4 20 40 47 29 17 68 34 87 38 51 9 160 12 155 4 -2 -4 7 -5 22 -2 16 3 24 1 20 -5 -4 -6 -1 -11 6 -10 31 1 48 -4 43 -12 -4 -5 2 -7 12 -4 13 3 28 -6 45 -26 14 -17 29 -31 34 -32 4 0 19 -14 33 -32 14 -17 18 -28 10 -24 -8 5 -5 0 8 -9 24 -18 30 -53 10 -56 -7 -1 -149 -2 -315 -2 -282 -1 -303 0 -303 17 0 15 11 22 33 18 5 -1 6 3 2 9 -3 6 -12 7 -18 3 -7 -4 -6 0 2 10 7 9 18 14 23 11 6 -4 5 3 -2 15 -6 12 -15 19 -21 16 -11 -7 -43 -69 -53 -102 l-7 -23 356 0 357 0 -7 28 c-19 77 -108 172 -201 214 -61 27 -198 35 -261 14z"/> <path d="M533 957 c0 -8 6 -14 14 -14 9 0 10 4 2 14 -6 7 -12 13 -14 13 -1 0 -2 -6 -2 -13z"/> <path d="M980 895 c0 -5 5 -17 10 -25 5 -8 10 -10 10 -5 0 6 -5 17 -10 25 -5 8 -10 11 -10 5z"/> <path d="M1007 1279 c7 -7 15 -10 18 -7 3 3 -2 9 -12 12 -14 6 -15 5 -6 -5z"/> <path d="M249 1083 c-13 -16 -12 -17 4 -4 16 13 21 21 13 21 -2 0 -10 -8 -17 -17z"/> <path d="M170 975 c0 -5 5 -17 10 -25 5 -8 10 -10 10 -5 0 6 -5 17 -10 25 -5 8 -10 11 -10 5z"/> <path d="M880 453 c0 -19 21 -27 33 -13 9 10 9 11 -2 5 -8 -4 -17 -2 -22 6 -6 9 -9 10 -9 2z"/> <path d="M1148 423 c7 -3 16 -2 19 1 4 3 -2 6 -13 5 -11 0 -14 -3 -6 -6z"/> <path d="M295 250 c10 -11 20 -20 23 -20 3 0 -3 9 -13 20 -10 11 -20 20 -23 20 -3 0 3 -9 13 -20z"/> <path d="M330 240 c0 -5 5 -10 11 -10 5 0 7 5 4 10 -3 6 -8 10 -11 10 -2 0 -4 -4 -4 -10z"/> <path d="M373 193 c0 -9 4 -10 14 -2 7 6 13 12 13 14 0 1 -6 2 -13 2 -8 0 -14 -6 -14 -14z"/> </g> </svg> 